<svg width="137" height="137" viewBox="0 0 137 137" fill="none" xmlns="http://www.w3.org/2000/svg">
<path fill-rule="evenodd" clip-rule="evenodd" d="M68.5 0C30.6685 0 0 30.6685 0 68.5C0 106.332 30.6685 137 68.5 137C106.331 137 137 106.332 137 68.5C137 30.6685 106.331 0 68.5 0ZM43.004 50.079C41.708 50.079 40.628 50.214 39.764 50.484C36.254 51.456 32.906 53.859 29.72 57.693C26.534 61.527 24.428 65.685 23.402 70.167C22.916 72.165 22.673 74.325 22.673 76.647C22.673 81.129 23.564 85.125 25.346 88.635C26.858 91.605 28.1 93.09 29.072 93.09C29.558 93.09 30.044 92.739 30.53 92.037C30.8 91.605 30.935 91.254 30.935 90.984C30.935 90.552 30.53 89.607 29.72 88.149C27.722 84.477 26.723 80.589 26.723 76.485C26.723 72.705 27.614 69.006 29.396 65.388C31.178 61.716 33.473 58.854 36.281 56.802L38.225 55.344C39.683 57.666 41.087 59.799 42.437 61.743L40.898 63.444C39.926 64.578 39.44 65.55 39.44 66.36C39.44 67.386 40.115 67.899 41.465 67.899H41.546C42.086 67.899 42.356 68.034 42.356 68.304C42.356 68.682 41.708 70.437 40.412 73.569C39.278 76.269 38.711 78.429 38.711 80.049V80.778C38.819 85.152 40.169 88.635 42.761 91.227C43.625 92.037 44.273 92.577 44.705 92.847C45.137 93.063 45.731 93.171 46.487 93.171C47.729 93.171 48.35 92.847 48.35 92.199C48.35 91.605 47.702 90.606 46.406 89.202C44.408 87.042 43.166 84.666 42.68 82.074C42.626 81.858 42.599 81.534 42.599 81.102C42.599 78.942 43.463 76.053 45.191 72.435C46.379 69.843 46.973 68.007 46.973 66.927C46.973 66.279 46.784 65.739 46.406 65.307C46.082 64.929 45.92 64.686 45.92 64.578C45.92 64.416 46.109 64.146 46.487 63.768C47.027 63.39 47.297 62.931 47.297 62.391C47.297 61.635 46.487 60.204 44.867 58.098C43.463 56.154 42.761 54.939 42.761 54.453C42.761 54.345 42.95 54.291 43.328 54.291C43.976 54.291 44.705 54.372 45.515 54.534C47.405 54.912 49.268 56.046 51.104 57.936C52.94 59.826 54.398 62.067 55.478 64.659C56.558 67.413 57.098 70.923 57.098 75.189C57.098 79.347 56.612 82.911 55.64 85.881C55.316 86.799 55.154 87.555 55.154 88.149C55.154 89.175 55.775 89.769 57.017 89.931H57.422C57.908 89.931 58.448 89.391 59.042 88.311C60.446 85.395 61.148 80.859 61.148 74.703C61.148 71.301 60.878 68.601 60.338 66.603C59.042 61.743 56.774 57.774 53.534 54.696C50.294 51.618 46.784 50.079 43.004 50.079ZM40.2494 96.411C39.4934 96.411 38.6834 96.897 37.8194 97.869C36.9014 98.733 36.4424 99.57 36.4424 100.38C36.4424 101.244 36.9014 102.108 37.8194 102.972C38.6834 103.944 39.5474 104.43 40.4114 104.43C41.2214 104.43 42.0854 103.944 43.0034 102.972C43.9214 102 44.3804 101.082 44.3804 100.218C44.3804 99.408 43.9214 98.571 43.0034 97.707C42.0314 96.843 41.1134 96.411 40.2494 96.411ZM108.125 49.188C105.425 49.188 102.995 49.755 100.835 50.889C99.7555 51.321 97.4875 52.698 94.0315 55.02C90.6295 57.288 87.7945 59.34 85.5265 61.176C81.3685 64.416 77.8855 66.063 75.0775 66.117C73.4575 66.117 72.3505 65.739 71.7565 64.983C71.1625 64.227 70.8655 63.525 70.8655 62.877C70.8655 60.987 73.4575 58.476 78.6415 55.344C79.4515 54.858 79.8565 54.291 79.8565 53.643C79.8565 53.211 79.6135 52.752 79.1275 52.266C78.6415 51.78 78.1555 51.537 77.6695 51.537C77.2375 51.537 76.3735 51.861 75.0775 52.509C72.6475 53.751 70.6495 55.371 69.0835 57.369C67.5175 59.313 66.7345 61.176 66.7345 62.958C66.7345 64.632 67.3015 66.198 68.4355 67.656C69.5695 69.06 70.9195 69.924 72.4855 70.248C73.2415 70.41 73.7005 70.572 73.8625 70.734C74.0785 70.842 74.1865 71.058 74.1865 71.382C74.1865 71.706 74.1595 72.543 74.1055 73.893C74.0515 75.243 73.9975 76.404 73.9435 77.376V78.915C73.9435 80.859 74.2675 82.587 74.9155 84.099C76.3735 87.177 78.4255 89.364 81.0715 90.66C82.3675 91.254 83.6095 91.551 84.7975 91.551C87.3355 91.551 90.7105 90.336 94.9225 87.906L98.8915 85.638L100.349 87.258C102.347 89.418 104.615 90.498 107.153 90.498H107.558C107.774 90.444 107.909 90.417 107.963 90.417L109.826 90.093L108.449 89.364C106.397 88.284 104.831 86.718 103.751 84.666C103.157 83.478 102.86 82.857 102.86 82.803C102.86 82.641 104.237 81.669 106.991 79.887C109.745 78.051 111.257 77.133 111.527 77.133C111.905 77.133 112.364 77.7 112.904 78.834C114.092 81.264 115.01 82.479 115.658 82.479L115.739 82.398H115.82C116.036 82.182 116.144 81.507 116.144 80.373C116.144 77.889 115.874 76.026 115.334 74.784C114.686 73.218 113.714 72.435 112.418 72.435C110.744 72.435 108.125 73.704 104.561 76.242C102.455 77.754 101.186 78.51 100.754 78.51C100.538 78.51 100.322 78.402 100.106 78.186C99.7825 77.862 99.4585 77.7 99.1345 77.7C98.9185 77.7 98.4325 77.862 97.6765 78.186C96.3805 78.888 95.7325 79.536 95.7325 80.13C95.7325 80.346 95.8675 80.643 96.1375 81.021C96.4075 81.291 96.5425 81.453 96.5425 81.507C96.5425 81.723 95.3275 82.587 92.8975 84.099C89.7115 86.043 87.0115 87.015 84.7975 87.015C83.4475 87.015 82.3135 86.637 81.3955 85.881C79.2355 84.099 78.1555 81.345 78.1555 77.619C78.1555 76.215 78.3175 74.622 78.6415 72.84C78.8575 71.436 79.1005 70.572 79.3705 70.248C79.6405 69.924 80.3425 69.492 81.4765 68.952C82.9885 68.304 85.7695 66.441 89.8195 63.363C94.8955 59.583 98.6215 57.045 100.997 55.749C103.373 54.453 105.533 53.805 107.477 53.805H108.125L110.312 53.967L110.231 55.992C109.961 59.394 109.826 61.257 109.826 61.581L109.502 65.226L111.608 63.201C113.822 61.095 114.929 58.584 114.929 55.668C114.929 52.752 113.822 50.808 111.608 49.836C110.474 49.404 109.313 49.188 108.125 49.188ZM91.0939 42.627C91.0939 43.545 91.5529 44.463 92.4709 45.381C93.3349 46.245 94.226 46.677 95.144 46.677C96.062 46.677 96.9799 46.245 97.8979 45.381C98.7619 44.463 99.194 43.545 99.194 42.627C99.194 41.709 98.7619 40.818 97.8979 39.954C96.9799 39.036 96.062 38.577 95.144 38.577C94.226 38.577 93.3349 39.036 92.4709 39.954C91.5529 40.818 91.0939 41.709 91.0939 42.627Z" fill="white"/>
</svg>
