<svg width="113" height="37" viewBox="0 0 113 37" fill="none" xmlns="http://www.w3.org/2000/svg">
<path d="M7.32 12.92C7.64 12.82 8.04 12.77 8.52 12.77C9.92 12.77 11.22 13.34 12.42 14.48C13.62 15.62 14.46 17.09 14.94 18.89C15.14 19.63 15.24 20.63 15.24 21.89C15.24 24.17 14.98 25.85 14.46 26.93C14.24 27.33 14.04 27.53 13.86 27.53H13.71C13.25 27.47 13.02 27.25 13.02 26.87C13.02 26.65 13.08 26.37 13.2 26.03C13.56 24.93 13.74 23.61 13.74 22.07C13.74 20.49 13.54 19.19 13.14 18.17C12.74 17.21 12.2 16.38 11.52 15.68C10.84 14.98 10.15 14.56 9.45 14.42C9.15 14.36 8.88 14.33 8.64 14.33C8.5 14.33 8.43 14.35 8.43 14.39C8.43 14.57 8.69 15.02 9.21 15.74C9.81 16.52 10.11 17.05 10.11 17.33C10.11 17.53 10.01 17.7 9.81 17.84C9.67 17.98 9.6 18.08 9.6 18.14C9.6 18.18 9.66 18.27 9.78 18.41C9.92 18.57 9.99 18.77 9.99 19.01C9.99 19.41 9.77 20.09 9.33 21.05C8.69 22.39 8.37 23.46 8.37 24.26C8.37 24.42 8.38 24.54 8.4 24.62C8.58 25.58 9.04 26.46 9.78 27.26C10.26 27.78 10.5 28.15 10.5 28.37C10.5 28.61 10.27 28.73 9.81 28.73C9.53 28.73 9.31 28.69 9.15 28.61C8.99 28.51 8.75 28.31 8.43 28.01C7.47 27.05 6.97 25.76 6.93 24.14V23.87C6.93 23.27 7.14 22.47 7.56 21.47C8.04 20.31 8.28 19.66 8.28 19.52C8.28 19.42 8.18 19.37 7.98 19.37H7.95C7.45 19.37 7.2 19.18 7.2 18.8C7.2 18.5 7.38 18.14 7.74 17.72L8.31 17.09C7.81 16.37 7.29 15.58 6.75 14.72L6.03 15.26C4.99 16.02 4.14 17.08 3.48 18.44C2.82 19.78 2.49 21.15 2.49 22.55C2.49 24.07 2.86 25.51 3.6 26.87C3.9 27.41 4.05 27.76 4.05 27.92C4.05 28.02 4 28.15 3.9 28.31C3.72 28.57 3.54 28.7 3.36 28.7C3 28.7 2.54 28.15 1.98 27.05C1.32 25.75 0.99 24.27 0.99 22.61C0.99 21.75 1.08 20.95 1.26 20.21C1.64 18.55 2.42 17.01 3.6 15.59C4.78 14.17 6.02 13.28 7.32 12.92ZM6.59976 30.47C6.91976 30.11 7.21976 29.93 7.49976 29.93C7.81976 29.93 8.15977 30.09 8.51977 30.41C8.85977 30.73 9.02977 31.04 9.02977 31.34C9.02977 31.66 8.85977 32 8.51977 32.36C8.17977 32.72 7.85977 32.9 7.55976 32.9C7.23976 32.9 6.91976 32.72 6.59976 32.36C6.25977 32.04 6.08977 31.72 6.08977 31.4C6.08977 31.1 6.25977 30.79 6.59976 30.47ZM29.9391 13.07C30.7391 12.65 31.6391 12.44 32.6391 12.44C33.0791 12.44 33.5091 12.52 33.9291 12.68C34.7491 13.04 35.1591 13.76 35.1591 14.84C35.1591 15.92 34.7491 16.85 33.9291 17.63L33.1491 18.38L33.2691 17.03C33.2691 16.91 33.3191 16.22 33.4191 14.96L33.4491 14.21L32.6391 14.15H32.3991C31.6791 14.15 30.8791 14.39 29.9991 14.87C29.1191 15.35 27.7391 16.29 25.8591 17.69C24.3591 18.83 23.3291 19.52 22.7691 19.76C22.3491 19.96 22.0891 20.12 21.9891 20.24C21.8891 20.36 21.7991 20.68 21.7191 21.2C21.5991 21.86 21.5391 22.45 21.5391 22.97C21.5391 24.35 21.9391 25.37 22.7391 26.03C23.0791 26.31 23.4991 26.45 23.9991 26.45C24.8191 26.45 25.8191 26.09 26.9991 25.37C27.8991 24.81 28.3491 24.49 28.3491 24.41C28.3491 24.39 28.2991 24.33 28.1991 24.23C28.0991 24.09 28.0491 23.98 28.0491 23.9C28.0491 23.68 28.2891 23.44 28.7691 23.18C29.0491 23.06 29.2291 23 29.3091 23C29.4291 23 29.5491 23.06 29.6691 23.18C29.7491 23.26 29.8291 23.3 29.9091 23.3C30.0691 23.3 30.5391 23.02 31.3191 22.46C32.6391 21.52 33.6091 21.05 34.2291 21.05C34.7091 21.05 35.0691 21.34 35.3091 21.92C35.5091 22.38 35.6091 23.07 35.6091 23.99C35.6091 24.41 35.5691 24.66 35.4891 24.74H35.4591L35.4291 24.77C35.1891 24.77 34.8491 24.32 34.4091 23.42C34.2091 23 34.0391 22.79 33.8991 22.79C33.7991 22.79 33.2391 23.13 32.2191 23.81C31.1991 24.47 30.6891 24.83 30.6891 24.89C30.6891 24.91 30.7991 25.14 31.0191 25.58C31.4191 26.34 31.9991 26.92 32.7591 27.32L33.2691 27.59L32.5791 27.71C32.5591 27.71 32.5091 27.72 32.4291 27.74C32.3491 27.74 32.2991 27.74 32.2791 27.74C31.3391 27.74 30.4991 27.34 29.7591 26.54L29.2191 25.94L27.7491 26.78C26.1891 27.68 24.9391 28.13 23.9991 28.13C23.5591 28.13 23.0991 28.02 22.6191 27.8C21.6391 27.32 20.8791 26.51 20.3391 25.37C20.0991 24.81 19.9791 24.17 19.9791 23.45V22.88C19.9991 22.52 20.0191 22.09 20.0391 21.59C20.0591 21.09 20.0691 20.78 20.0691 20.66C20.0691 20.54 20.0291 20.46 19.9491 20.42C19.8891 20.36 19.7191 20.3 19.4391 20.24C18.8591 20.12 18.3591 19.8 17.9391 19.28C17.5191 18.74 17.3091 18.16 17.3091 17.54C17.3091 16.88 17.5991 16.19 18.1791 15.47C18.7591 14.73 19.4991 14.13 20.3991 13.67C20.8791 13.43 21.1991 13.31 21.3591 13.31C21.5391 13.31 21.7191 13.4 21.8991 13.58C22.0791 13.76 22.1691 13.93 22.1691 14.09C22.1691 14.33 22.0191 14.54 21.7191 14.72C19.7991 15.88 18.8391 16.81 18.8391 17.51C18.8391 17.75 18.9491 18.01 19.1691 18.29C19.3891 18.57 19.7991 18.71 20.3991 18.71C21.4391 18.69 22.7291 18.08 24.2691 16.88C25.1091 16.2 26.1591 15.44 27.4191 14.6C28.6991 13.74 29.5391 13.23 29.9391 13.07ZM26.8411 11.03C26.5011 10.69 26.3311 10.35 26.3311 10.01C26.3311 9.67 26.5011 9.34 26.8411 9.02C27.1611 8.68 27.4911 8.51 27.8311 8.51C28.1711 8.51 28.5111 8.68 28.8511 9.02C29.1711 9.34 29.3311 9.67 29.3311 10.01C29.3311 10.35 29.1711 10.69 28.8511 11.03C28.5111 11.35 28.1711 11.51 27.8311 11.51C27.4911 11.51 27.1611 11.35 26.8411 11.03Z" fill="black"/>
<path d="M42.34 36.86H40.78V5.3H42.34V36.86ZM64.7413 29.21L51.3913 11.69V24.53C51.3913 25.29 51.4113 25.88 51.4513 26.3C51.4913 26.7 51.6113 27.01 51.8113 27.23C52.0113 27.43 52.3213 27.6 52.7413 27.74C53.1613 27.88 53.7613 27.99 54.5413 28.07C54.5813 28.39 54.5813 28.71 54.5413 29.03C53.9413 29.03 53.2713 29.02 52.5313 29C51.8113 28.98 51.2013 28.97 50.7013 28.97C50.2013 28.97 49.5813 28.98 48.8413 29C48.1213 29.02 47.4713 29.03 46.8913 29.03C46.8313 28.73 46.8313 28.41 46.8913 28.07C47.6113 27.97 48.1713 27.88 48.5713 27.8C48.9713 27.7 49.2613 27.56 49.4413 27.38C49.6213 27.18 49.7313 26.89 49.7713 26.51C49.8313 26.13 49.8613 25.6 49.8613 24.92V12.62C49.8613 11.82 49.8313 11.19 49.7713 10.73C49.7313 10.27 49.6013 9.93 49.3813 9.71C49.1813 9.47 48.8613 9.3 48.4213 9.2C48.0013 9.08 47.4113 8.98 46.6513 8.9C46.6313 8.6 46.6313 8.29 46.6513 7.97C47.2713 7.97 47.9313 7.98 48.6313 8C49.3313 8.02 50.0313 8.03 50.7313 8.03C50.8313 8.03 51.1013 8.03 51.5413 8.03C52.0013 8.03 52.4013 8.02 52.7413 8L64.9213 24.02V12.5C64.9213 11.74 64.9013 11.15 64.8613 10.73C64.8413 10.31 64.7213 10 64.5013 9.8C64.0813 9.36 63.0713 9.08 61.4713 8.96C61.4113 8.62 61.4113 8.3 61.4713 8C61.8513 8 62.3013 8.01 62.8213 8.03C63.3613 8.03 63.8813 8.04 64.3813 8.06C64.8813 8.06 65.2913 8.06 65.6113 8.06C66.1113 8.06 66.7313 8.05 67.4713 8.03C68.2113 8.01 68.8713 8 69.4513 8C69.4913 8.3 69.4913 8.61 69.4513 8.93C68.4913 9.05 67.8013 9.19 67.3813 9.35C66.9613 9.49 66.7013 9.76 66.6013 10.16C66.5013 10.56 66.4513 11.21 66.4513 12.11V29.06C66.2513 29.1 65.9813 29.13 65.6413 29.15C65.3013 29.19 65.0013 29.21 64.7413 29.21ZM78.0374 29.36C76.5774 29.36 75.2974 29.05 74.1974 28.43C73.1174 27.79 72.2774 26.92 71.6774 25.82C71.0774 24.7 70.7774 23.42 70.7774 21.98C70.7774 20.42 71.0874 19.06 71.7074 17.9C72.3474 16.74 73.2374 15.84 74.3774 15.2C75.5174 14.56 76.8274 14.24 78.3074 14.24C79.7674 14.24 81.0374 14.56 82.1174 15.2C83.1974 15.84 84.0374 16.72 84.6374 17.84C85.2374 18.96 85.5374 20.23 85.5374 21.65C85.5374 23.11 85.2174 24.43 84.5774 25.61C83.9574 26.77 83.0874 27.69 81.9674 28.37C80.8474 29.03 79.5374 29.36 78.0374 29.36ZM74.1674 21.62C74.1674 23.66 74.4974 25.28 75.1574 26.48C75.8374 27.66 76.8474 28.25 78.1874 28.25C79.4674 28.25 80.4474 27.69 81.1274 26.57C81.8074 25.43 82.1474 23.91 82.1474 22.01C82.1474 19.99 81.8074 18.38 81.1274 17.18C80.4474 15.98 79.4574 15.38 78.1574 15.38C76.8774 15.38 75.8874 15.93 75.1874 17.03C74.5074 18.13 74.1674 19.66 74.1674 21.62ZM87.5561 29.03C87.4961 28.71 87.4961 28.4 87.5561 28.1C88.2361 28.06 88.7361 28 89.0561 27.92C89.3761 27.82 89.5861 27.62 89.6861 27.32C89.7861 27.02 89.8361 26.54 89.8361 25.88V19.16C89.8361 18.38 89.7961 17.8 89.7161 17.42C89.6561 17.04 89.4661 16.78 89.1461 16.64C88.8461 16.48 88.3261 16.35 87.5861 16.25C87.5261 15.97 87.5261 15.71 87.5861 15.47C88.3861 15.31 89.1661 15.13 89.9261 14.93C90.6861 14.71 91.4861 14.43 92.3261 14.09L92.8361 14.27V16.91C94.2361 15.13 95.6661 14.24 97.1261 14.24C97.8261 14.24 98.3461 14.43 98.6861 14.81C99.0261 15.17 99.1961 15.58 99.1961 16.04C99.1961 16.58 99.0161 17 98.6561 17.3C98.2961 17.58 97.8861 17.72 97.4261 17.72C97.0461 17.72 96.6661 17.62 96.2861 17.42C95.9261 17.22 95.6561 16.91 95.4761 16.49C94.7961 16.49 94.1861 16.76 93.6461 17.3C93.1261 17.82 92.8661 18.43 92.8661 19.13V25.58C92.8661 26.36 92.9061 26.92 92.9861 27.26C93.0861 27.6 93.3261 27.82 93.7061 27.92C94.1061 28 94.7461 28.06 95.6261 28.1C95.6661 28.38 95.6661 28.69 95.6261 29.03C94.9461 29.03 94.2461 29.02 93.5261 29C92.8061 28.98 92.0661 28.97 91.3061 28.97C90.5661 28.97 89.9061 28.98 89.3261 29C88.7661 29.02 88.1761 29.03 87.5561 29.03ZM107.361 29.03C106.801 29.03 106.221 29.02 105.621 29C105.021 28.98 104.371 28.97 103.671 28.97C103.031 28.97 102.381 28.98 101.721 29C101.081 29.02 100.461 29.03 99.8608 29.03C99.8008 28.71 99.8008 28.4 99.8608 28.1C100.541 28.06 101.041 28 101.361 27.92C101.681 27.82 101.891 27.62 101.991 27.32C102.091 27.02 102.141 26.54 102.141 25.88V19.16C102.141 18.38 102.111 17.8 102.051 17.42C101.991 17.04 101.801 16.78 101.481 16.64C101.181 16.48 100.651 16.35 99.8908 16.25C99.8308 15.97 99.8308 15.71 99.8908 15.47C100.771 15.31 101.611 15.11 102.411 14.87C103.211 14.63 103.981 14.37 104.721 14.09L105.231 14.27C105.211 14.89 105.191 15.47 105.171 16.01C105.171 16.55 105.171 17.06 105.171 17.54V25.58C105.171 26.36 105.211 26.92 105.291 27.26C105.391 27.6 105.591 27.82 105.891 27.92C106.211 28 106.701 28.06 107.361 28.1C107.421 28.4 107.421 28.71 107.361 29.03ZM101.361 8.99C101.361 8.41 101.561 7.92 101.961 7.52C102.381 7.12 102.881 6.92 103.461 6.92C104.021 6.92 104.501 7.12 104.901 7.52C105.321 7.92 105.531 8.4 105.531 8.96C105.531 9.48 105.331 9.96 104.931 10.4C104.531 10.82 104.021 11.03 103.401 11.03C102.841 11.03 102.361 10.83 101.961 10.43C101.561 10.03 101.361 9.55 101.361 8.99Z" fill="black"/>
</svg>
