<svg width="47" height="34" viewBox="0 0 47 34" fill="none" xmlns="http://www.w3.org/2000/svg">
<path d="M8.76 6.56C9.18667 6.42667 9.72 6.36 10.36 6.36C12.2267 6.36 13.96 7.12 15.56 8.64C17.16 10.16 18.28 12.12 18.92 14.52C19.1867 15.5067 19.32 16.84 19.32 18.52C19.32 21.56 18.9733 23.8 18.28 25.24C17.9867 25.7733 17.72 26.04 17.48 26.04H17.28C16.6667 25.96 16.36 25.6667 16.36 25.16C16.36 24.8667 16.44 24.4933 16.6 24.04C17.08 22.5733 17.32 20.8133 17.32 18.76C17.32 16.6533 17.0533 14.92 16.52 13.56C15.9867 12.28 15.2667 11.1733 14.36 10.24C13.4533 9.30666 12.5333 8.74666 11.6 8.56C11.2 8.48 10.84 8.44 10.52 8.44C10.3333 8.44 10.24 8.46667 10.24 8.52C10.24 8.76 10.5867 9.36 11.28 10.32C12.08 11.36 12.48 12.0667 12.48 12.44C12.48 12.7067 12.3467 12.9333 12.08 13.12C11.8933 13.3067 11.8 13.44 11.8 13.52C11.8 13.5733 11.88 13.6933 12.04 13.88C12.2267 14.0933 12.32 14.36 12.32 14.68C12.32 15.2133 12.0267 16.12 11.44 17.4C10.5867 19.1867 10.16 20.6133 10.16 21.68C10.16 21.8933 10.1733 22.0533 10.2 22.16C10.44 23.44 11.0533 24.6133 12.04 25.68C12.68 26.3733 13 26.8667 13 27.16C13 27.48 12.6933 27.64 12.08 27.64C11.7067 27.64 11.4133 27.5867 11.2 27.48C10.9867 27.3467 10.6667 27.08 10.24 26.68C8.96 25.4 8.29333 23.68 8.24 21.52V21.16C8.24 20.36 8.52 19.2933 9.08 17.96C9.72 16.4133 10.04 15.5467 10.04 15.36C10.04 15.2267 9.90667 15.16 9.64 15.16H9.6C8.93333 15.16 8.6 14.9067 8.6 14.4C8.6 14 8.84 13.52 9.32 12.96L10.08 12.12C9.41333 11.16 8.72 10.1067 8 8.96L7.04 9.68C5.65333 10.6933 4.52 12.1067 3.64 13.92C2.76 15.7067 2.32 17.5333 2.32 19.4C2.32 21.4267 2.81333 23.3467 3.8 25.16C4.2 25.88 4.4 26.3467 4.4 26.56C4.4 26.6933 4.33333 26.8667 4.2 27.08C3.96 27.4267 3.72 27.6 3.48 27.6C3 27.6 2.38667 26.8667 1.64 25.4C0.76 23.6667 0.32 21.6933 0.32 19.48C0.32 18.3333 0.44 17.2667 0.68 16.28C1.18667 14.0667 2.22667 12.0133 3.8 10.12C5.37333 8.22667 7.02667 7.04 8.76 6.56ZM7.79969 29.96C8.22635 29.48 8.62635 29.24 8.99969 29.24C9.42635 29.24 9.87969 29.4533 10.3597 29.88C10.813 30.3067 11.0397 30.72 11.0397 31.12C11.0397 31.5467 10.813 32 10.3597 32.48C9.90635 32.96 9.47969 33.2 9.07969 33.2C8.65302 33.2 8.22635 32.96 7.79969 32.48C7.34635 32.0533 7.11969 31.6267 7.11969 31.2C7.11969 30.8 7.34635 30.3867 7.79969 29.96ZM38.9188 6.76C39.9854 6.2 41.1854 5.92 42.5188 5.92C43.1054 5.92 43.6788 6.02667 44.2387 6.24C45.3321 6.72 45.8788 7.68 45.8788 9.12C45.8788 10.56 45.3321 11.8 44.2387 12.84L43.1988 13.84L43.3588 12.04C43.3588 11.88 43.4254 10.96 43.5588 9.28L43.5988 8.28L42.5188 8.2H42.1988C41.2388 8.2 40.1721 8.52 38.9988 9.16C37.8254 9.8 35.9854 11.0533 33.4788 12.92C31.4788 14.44 30.1054 15.36 29.3588 15.68C28.7988 15.9467 28.4521 16.16 28.3188 16.32C28.1854 16.48 28.0654 16.9067 27.9588 17.6C27.7988 18.48 27.7188 19.2667 27.7188 19.96C27.7188 21.8 28.2521 23.16 29.3188 24.04C29.7721 24.4133 30.3321 24.6 30.9987 24.6C32.0921 24.6 33.4254 24.12 34.9988 23.16C36.1988 22.4133 36.7988 21.9867 36.7988 21.88C36.7988 21.8533 36.7321 21.7733 36.5988 21.64C36.4654 21.4533 36.3988 21.3067 36.3988 21.2C36.3988 20.9067 36.7188 20.5867 37.3588 20.24C37.7321 20.08 37.9721 20 38.0788 20C38.2388 20 38.3988 20.08 38.5588 20.24C38.6654 20.3467 38.7721 20.4 38.8788 20.4C39.0921 20.4 39.7188 20.0267 40.7588 19.28C42.5188 18.0267 43.8121 17.4 44.6388 17.4C45.2788 17.4 45.7588 17.7867 46.0788 18.56C46.3454 19.1733 46.4788 20.0933 46.4788 21.32C46.4788 21.88 46.4254 22.2133 46.3188 22.32H46.2788L46.2388 22.36C45.9188 22.36 45.4654 21.76 44.8788 20.56C44.6121 20 44.3854 19.72 44.1988 19.72C44.0654 19.72 43.3188 20.1733 41.9588 21.08C40.5988 21.96 39.9188 22.44 39.9188 22.52C39.9188 22.5467 40.0654 22.8533 40.3588 23.44C40.8921 24.4533 41.6654 25.2267 42.6788 25.76L43.3588 26.12L42.4388 26.28C42.4121 26.28 42.3454 26.2933 42.2388 26.32C42.1321 26.32 42.0654 26.32 42.0388 26.32C40.7854 26.32 39.6654 25.7867 38.6788 24.72L37.9588 23.92L35.9988 25.04C33.9188 26.24 32.2521 26.84 30.9987 26.84C30.4121 26.84 29.7988 26.6933 29.1588 26.4C27.8521 25.76 26.8388 24.68 26.1188 23.16C25.7988 22.4133 25.6388 21.56 25.6388 20.6V19.84C25.6654 19.36 25.6921 18.7867 25.7188 18.12C25.7454 17.4533 25.7588 17.04 25.7588 16.88C25.7588 16.72 25.7054 16.6133 25.5988 16.56C25.5188 16.48 25.2921 16.4 24.9188 16.32C24.1454 16.16 23.4788 15.7333 22.9188 15.04C22.3588 14.32 22.0788 13.5467 22.0788 12.72C22.0788 11.84 22.4654 10.92 23.2388 9.96C24.0121 8.97333 24.9988 8.17333 26.1988 7.56C26.8388 7.24 27.2654 7.08 27.4788 7.08C27.7188 7.08 27.9588 7.2 28.1988 7.44C28.4388 7.68 28.5588 7.90667 28.5588 8.12C28.5588 8.44 28.3588 8.72 27.9588 8.96C25.3988 10.5067 24.1188 11.7467 24.1188 12.68C24.1188 13 24.2654 13.3467 24.5588 13.72C24.8521 14.0933 25.3988 14.28 26.1988 14.28C27.5854 14.2533 29.3054 13.44 31.3588 11.84C32.4788 10.9333 33.8788 9.92 35.5588 8.8C37.2654 7.65333 38.3854 6.97333 38.9188 6.76ZM34.7881 4.04C34.3348 3.58667 34.1081 3.13333 34.1081 2.68C34.1081 2.22666 34.3348 1.78666 34.7881 1.36C35.2148 0.906665 35.6548 0.679998 36.1081 0.679998C36.5615 0.679998 37.0148 0.906665 37.4681 1.36C37.8948 1.78666 38.1081 2.22666 38.1081 2.68C38.1081 3.13333 37.8948 3.58667 37.4681 4.04C37.0148 4.46667 36.5615 4.68 36.1081 4.68C35.6548 4.68 35.2148 4.46667 34.7881 4.04Z" fill="black"/>
</svg>
